<?xml version="1.0" standalone="no"?>
<!DOCTYPE svg PUBLIC "-//W3C//DTD SVG 20010904//EN"
 "http://www.w3.org/TR/2001/REC-SVG-20010904/DTD/svg10.dtd">
<svg version="1.0" xmlns="http://www.w3.org/2000/svg"
 width="1013.000000pt" height="1355.000000pt" viewBox="0 0 1013.000000 1355.000000"
 preserveAspectRatio="xMidYMid meet">

<g transform="translate(0.000000,1355.000000) scale(0.100000,-0.100000)"
fill="#000000" stroke="none">
<path d="M1379 13535 c-341 -47 -655 -217 -880 -478 -161 -186 -274 -418 -326
-670 -16 -76 -17 -380 -20 -4534 l-3 -4453 4990 0 4990 0 -3 4453 c-3 4154 -4
4458 -20 4534 -52 252 -165 484 -326 670 -166 192 -382 337 -624 417 -230 77
159 70 -3977 72 -3025 2 -3723 0 -3801 -11z"/>
<path d="M4915 2035 c-16 -5 -34 -13 -40 -16 -5 -4 -1085 -452 -2400 -997
-1314 -545 -2406 -997 -2425 -1005 -31 -14 496 -15 5023 -16 l5057 -1 0 1015
0 1015 -2589 0 c-1424 0 -2591 3 -2593 8 -1 4 -16 3 -33 -3z"/>
</g>
</svg>
