<?xml version="1.0" standalone="no"?>
<!DOCTYPE svg PUBLIC "-//W3C//DTD SVG 20010904//EN"
 "http://www.w3.org/TR/2001/REC-SVG-20010904/DTD/svg10.dtd">
<svg version="1.0" xmlns="http://www.w3.org/2000/svg"
 width="444.000000pt" height="600.000000pt" viewBox="0 0 444.000000 600.000000"
 preserveAspectRatio="xMidYMid meet">

<g transform="translate(0.000000,600.000000) scale(0.100000,-0.100000)"
fill="#000000" stroke="none">
<path d="M520 5964 c-176 -37 -340 -164 -419 -325 -76 -153 -71 -3 -71 -2156
l0 -1933 2175 0 2175 0 0 1933 c0 2153 5 2003 -71 2156 -80 163 -244 288 -424
326 -102 21 -3265 21 -3365 -1z m2900 -485 c60 -27 79 -45 106 -104 l24 -50 0
-495 0 -495 -24 -50 c-27 -59 -46 -77 -106 -104 -44 -20 -60 -21 -1215 -21
l-1170 0 -50 24 c-59 27 -77 46 -104 106 -20 43 -21 64 -21 540 0 476 1 497
21 540 27 60 45 79 104 106 l50 24 1170 0 c1155 0 1171 -1 1215 -21z m-380
-2284 l0 -425 -855 0 -855 0 0 425 0 425 855 0 855 0 0 -425z"/>
<path d="M1057 520 c-581 -239 -1057 -438 -1057 -442 0 -5 986 -8 2190 -8
l2190 0 0 440 0 440 -1133 2 -1134 3 -1056 -435z"/>
</g>
</svg>
